<svg width="134" height="26" viewBox="0 0 134 26" fill="none" xmlns="http://www.w3.org/2000/svg">
<path d="M10.6213 7.4289C10.6213 5.26348 10.6213 3.10701 10.6213 0.941591C10.6213 0.67315 10.6213 0.404711 10.6213 0.145218C10.6213 -0.00689769 10.5765 -0.0337414 10.4423 0.0378426C10.2365 0.154167 10.0307 0.27049 9.82491 0.386814C9.24329 0.717891 8.66167 1.05792 8.08005 1.39794C7.49843 1.73796 6.92576 2.07799 6.33519 2.40907C6.13833 2.51644 6.0578 2.63277 6.0578 2.87436C6.0578 6.22987 6.0578 9.58537 6.0578 12.9409C6.0578 13.0751 6.0578 13.2004 6.0578 13.3346C6.0578 13.4509 6.11149 13.5314 6.20992 13.5851C6.36204 13.6657 6.51415 13.7551 6.66627 13.8357C7.25683 14.1489 7.85635 14.3994 8.50061 14.5784C9.09118 14.7394 9.6907 14.8557 10.2992 14.8915C10.6034 14.9094 10.6213 14.8915 10.6213 14.5963C10.6213 12.2071 10.6213 9.82697 10.6213 7.43785M12.4019 7.45574C12.4019 9.81802 12.4019 12.1803 12.4019 14.5426C12.4019 14.6052 12.4019 14.6678 12.4019 14.7305C12.4019 14.8378 12.4556 14.8915 12.563 14.8915C12.9925 14.8915 13.4131 14.811 13.8336 14.7215C14.2721 14.632 14.6926 14.5068 15.1132 14.3457C15.6322 14.1489 16.1243 13.9073 16.6075 13.6388C16.7865 13.5404 16.8312 13.4151 16.8312 13.2272C16.8312 9.75538 16.8312 6.28355 16.8312 2.80278C16.8312 -0.677999 16.8312 2.6954 16.8312 2.64171C16.8312 2.52539 16.7775 2.4538 16.6791 2.40012C16.4017 2.248 16.1243 2.07799 15.8469 1.92587C15.3369 1.63059 14.8269 1.3353 14.3168 1.04002C13.7889 0.735787 13.252 0.422606 12.7151 0.118374C12.6346 0.0736341 12.5541 -0.0247932 12.4556 0.0199469C12.3572 0.0736349 12.4019 0.198907 12.4019 0.288387C12.4019 2.67751 12.4019 5.06662 12.4019 7.44679M18.6029 7.94788C18.6029 9.08428 18.6029 10.2207 18.6029 11.3481C18.6029 11.6166 18.6029 11.885 18.6029 12.1445C18.6029 12.2877 18.6834 12.3324 18.7998 12.2608C19.2472 11.9924 19.7035 11.7418 20.1778 11.5181C20.5804 11.3302 20.992 11.1781 21.4036 11.0439C21.8421 10.9007 22.2984 10.8202 22.7458 10.7307C22.9009 10.7009 22.9785 10.6084 22.9785 10.4533C22.9785 9.10218 22.9785 7.75103 22.9785 6.39093C22.9785 6.33724 22.9785 6.2746 22.9785 6.22092C22.9785 6.0867 22.9158 5.99722 22.8085 5.94353C22.54 5.79141 22.2805 5.6393 22.0121 5.48718C21.3678 5.12031 20.7325 4.7445 20.0883 4.37763C19.6498 4.12708 19.2203 3.87654 18.7819 3.62599C18.6745 3.56336 18.6029 3.59915 18.594 3.72442C18.594 3.76916 18.594 3.82285 18.594 3.86759C18.594 5.22769 18.594 6.58779 18.594 7.93894M4.27715 7.99262C4.27715 6.65042 4.27715 5.31717 4.27715 3.97497C4.27715 3.91233 4.27715 3.85864 4.27715 3.79601C4.2682 3.67073 4.20556 3.63494 4.08924 3.69758C3.98186 3.76021 3.87449 3.82285 3.76711 3.88549C3.18549 4.21656 2.60387 4.55659 2.02225 4.88766C1.48537 5.20084 0.948492 5.50508 0.411612 5.81826C0.205807 5.93458 3.27673e-06 6.03301 0.00895129 6.34619C0.0268473 7.73313 0.00895129 9.12007 0.00895129 10.507C0.00895129 10.6412 0.0626393 10.7039 0.187911 10.7397C0.447404 10.8112 0.706895 10.8381 0.975335 10.9007C1.48537 11.0171 1.96856 11.1781 2.45176 11.375C2.98864 11.5987 3.51657 11.8671 4.00871 12.1803C4.07134 12.2161 4.14293 12.3145 4.22346 12.2698C4.32189 12.2161 4.27715 12.0998 4.27715 12.0103C4.27715 10.6681 4.27715 9.32588 4.27715 7.97473M10.6213 17.0301C10.6213 16.7169 10.6213 16.4038 10.6213 16.0816C10.6213 15.9564 10.5676 15.9027 10.4423 15.8848C10.0039 15.8221 9.55648 15.7953 9.11802 15.7148C8.63483 15.6253 8.16954 15.5 7.70424 15.3389C7.2121 15.1779 6.73785 14.9542 6.26361 14.7215C6.08465 14.632 6.04886 14.6589 6.04886 14.8557C6.04886 15.4374 6.04886 16.019 6.04886 16.6006C6.04886 16.7348 6.10255 16.8243 6.22782 16.8959C6.51415 17.057 6.80049 17.2091 7.09577 17.3522C7.60581 17.6028 8.12479 17.7907 8.67062 17.9249C9.23435 18.0681 9.80702 18.1665 10.3886 18.1934C10.5765 18.1934 10.6123 18.1665 10.6123 17.9786C10.6123 17.6654 10.6123 17.3522 10.6123 17.0301M10.6213 20.314C10.6213 20.0277 10.6213 19.7414 10.6213 19.455C10.6213 19.2134 10.6034 19.2045 10.3618 19.1687C9.97703 19.1061 9.59227 19.0971 9.2075 19.0166C8.86748 18.945 8.52745 18.8734 8.18743 18.7839C7.81161 18.6855 7.45369 18.5513 7.09577 18.3992C6.80049 18.2739 6.51415 18.1218 6.21887 17.9875C6.09359 17.9339 6.0578 17.9518 6.0578 18.086C6.0578 18.6765 6.0578 19.2582 6.0578 19.8487C6.0578 19.9561 6.11149 20.0277 6.20097 20.0814C6.54994 20.2872 6.89892 20.4751 7.26578 20.6362C7.59686 20.7883 7.93688 20.9135 8.27691 21.0209C8.60798 21.1194 8.94801 21.1999 9.28803 21.2715C9.6549 21.3431 10.0307 21.3699 10.3976 21.4236C10.5765 21.4504 10.6123 21.3967 10.6123 21.2178C10.6123 20.9135 10.6123 20.6093 10.6123 20.3051M12.4019 17.048C12.4019 17.3343 12.4019 17.6207 12.4019 17.907C12.4019 18.1755 12.4198 18.1934 12.6972 18.1755C13.1536 18.1486 13.601 18.0681 14.0484 17.9697C14.46 17.8802 14.8626 17.7549 15.2564 17.6028C15.7485 17.4149 16.2227 17.1643 16.688 16.9048C16.7865 16.8512 16.8312 16.7796 16.8312 16.6722C16.8312 16.0637 16.8312 15.4642 16.8312 14.8557C16.8312 14.7126 16.7775 14.6857 16.6433 14.7484C16.4912 14.811 16.348 14.8915 16.1959 14.9631C15.8022 15.1421 15.3995 15.3031 14.979 15.4284C14.63 15.5358 14.2721 15.6253 13.9142 15.7058C13.4757 15.8042 13.0283 15.8311 12.5898 15.8937C12.4556 15.9116 12.4109 15.9742 12.4109 16.0995C12.4109 16.4216 12.4109 16.7438 12.4109 17.057M22.9785 12.8693C22.9785 12.5561 22.9785 12.2429 22.9785 11.9208C22.9785 11.7508 22.9337 11.7239 22.7637 11.7418C22.37 11.7776 21.9853 11.894 21.6005 12.0013C21.1889 12.1266 20.7773 12.2877 20.3925 12.4845C19.8198 12.7709 19.2651 13.093 18.7371 13.442C18.6387 13.5046 18.6029 13.5941 18.6029 13.7015C18.6029 14.2741 18.6029 14.8557 18.6029 15.4284C18.6029 15.5805 18.6745 15.6163 18.8087 15.5447C19.1129 15.3747 19.4172 15.1958 19.7304 15.0347C20.2672 14.7573 20.822 14.5336 21.3857 14.3547C21.8421 14.2115 22.3163 14.1131 22.7816 14.0325C22.9159 14.0057 22.9695 13.943 22.9695 13.8088C22.9695 13.4956 22.9695 13.1825 22.9695 12.8603M10.6213 23.9022C10.6213 23.4906 10.6213 23.079 10.6213 22.6674C10.6213 22.4258 10.6034 22.4079 10.3707 22.3989C9.92334 22.3721 9.47594 22.3005 9.03749 22.22C8.70641 22.1573 8.38429 22.0678 8.06216 21.9784C7.69529 21.8799 7.34632 21.7368 6.99734 21.5936C6.7468 21.4862 6.5052 21.3699 6.26361 21.2446C6.11149 21.1641 6.04886 21.2088 6.04886 21.3699C6.04886 21.7994 6.04886 22.2289 6.04886 22.6674C6.04886 22.7568 6.0757 22.8195 6.15623 22.8642C6.37993 22.9984 6.60363 23.1327 6.82733 23.2669C7.4179 23.6069 8.01742 23.9559 8.60799 24.2959C9.2075 24.6359 9.80702 24.9849 10.4065 25.3249C10.5676 25.4144 10.6034 25.3876 10.6123 25.1996C10.6123 24.7701 10.6123 24.3496 10.6123 23.9201M12.4019 20.2961C12.4019 20.6093 12.4019 20.9225 12.4019 21.2446C12.4019 21.4057 12.4467 21.4415 12.6077 21.4236C12.8136 21.4057 13.0194 21.3699 13.2252 21.3431C13.5025 21.3073 13.771 21.2625 14.0394 21.1999C14.4331 21.1015 14.8179 20.9851 15.2027 20.833C15.7127 20.6362 16.1869 20.3856 16.6612 20.1172C16.7865 20.0456 16.8223 19.9472 16.8223 19.804C16.8223 19.3298 16.8223 18.8645 16.8223 18.3902C16.8223 18.3007 16.8223 18.2023 16.8223 18.1128C16.8223 18.0054 16.7686 17.9607 16.6612 18.0054C16.5807 18.0412 16.5091 18.086 16.4285 18.1218C15.9633 18.3455 15.489 18.5334 15.0058 18.6944C14.6568 18.8018 14.3079 18.8913 13.9499 18.9718C13.5115 19.0703 13.0641 19.0971 12.6256 19.1597C12.4109 19.1866 12.4019 19.1955 12.4019 19.4192C12.4019 19.7145 12.4019 20.0009 12.4019 20.2961ZM12.4019 23.8753C12.4019 24.3138 12.4019 24.7612 12.4019 25.1996C12.4019 25.3697 12.4467 25.3876 12.5898 25.307C13.1536 24.9849 13.7083 24.6628 14.2721 24.3317C15.0863 23.8664 15.8917 23.3921 16.7059 22.9269C16.7775 22.8821 16.8133 22.8284 16.8133 22.7479C16.8133 22.2736 16.8133 21.8083 16.8133 21.3341C16.8133 21.2178 16.7417 21.182 16.6343 21.2357C16.4822 21.3162 16.3301 21.3878 16.178 21.4594C15.668 21.7099 15.1311 21.8978 14.5853 22.041C13.9321 22.22 13.2699 22.3273 12.5988 22.381C12.4198 22.3989 12.393 22.4168 12.393 22.6047C12.393 23.0253 12.393 23.4458 12.393 23.8664M0.0178971 12.8872C0.0178971 12.8872 0.0178993 12.8872 0.00895129 12.8872C0.00895129 13.1288 0.00895129 13.3704 0.00895129 13.612C0.00895129 14.0236 0.00895018 14.0415 0.438455 14.0952C0.697947 14.131 0.957437 14.1936 1.20798 14.2562C1.59275 14.3636 1.96857 14.4799 2.33543 14.632C2.7023 14.7752 3.05127 14.9452 3.40024 15.1242C3.65079 15.2584 3.89238 15.4016 4.13398 15.5358C4.23241 15.5895 4.2682 15.5626 4.27715 15.4642C4.27715 15.4284 4.27715 15.3926 4.27715 15.3658C4.27715 14.8021 4.27715 14.2383 4.27715 13.6746C4.27715 13.5225 4.21451 13.433 4.08924 13.3614C3.81185 13.2004 3.54341 13.0214 3.26602 12.8603C2.88126 12.6366 2.48755 12.4398 2.06699 12.2698C1.74486 12.1445 1.42274 12.0192 1.08271 11.9297C0.805324 11.8582 0.527936 11.7687 0.232652 11.7418C0.0536913 11.7239 0.00895129 11.7418 0.00895129 11.9297C0.00895129 12.2429 0.00895129 12.5561 0.00895129 12.8782M22.9874 16.1532C22.9874 15.849 22.9874 15.5537 22.9874 15.2495C22.9874 15.0526 22.9427 15.0168 22.7458 15.0437C22.0479 15.1331 21.3857 15.3479 20.7415 15.6163C20.0435 15.9116 19.3903 16.3053 18.755 16.7259C18.6477 16.7975 18.6029 16.8869 18.6029 17.0122C18.6029 17.5491 18.6029 18.086 18.6029 18.6318C18.6029 18.8018 18.6834 18.8555 18.8356 18.766C19.0235 18.6497 19.2114 18.5513 19.3993 18.4439C19.972 18.1218 20.5625 17.8533 21.1889 17.6565C21.6989 17.4954 22.2179 17.3522 22.7548 17.2986C22.9427 17.2807 22.9874 17.227 22.9874 17.0301C22.9874 16.7348 22.9874 16.4485 22.9874 16.1532ZM0.00895129 16.1353C0.00895129 16.4306 0.00895129 16.7169 0.00895129 17.0122C0.00895129 17.2449 0.062635 17.2896 0.295283 17.3075C0.366867 17.3075 0.438454 17.3164 0.510038 17.3343C1.08271 17.4596 1.64644 17.6028 2.20121 17.8175C2.84547 18.0591 3.45393 18.3813 4.0445 18.7302C4.09819 18.766 4.15188 18.8287 4.22346 18.7839C4.2861 18.7481 4.27715 18.6765 4.27715 18.6139C4.27715 18.0681 4.27715 17.5133 4.27715 16.9675C4.27715 16.8512 4.23241 16.7617 4.13398 16.699C3.69553 16.4216 3.24813 16.1443 2.78283 15.9116C2.34438 15.6879 1.88803 15.4911 1.41378 15.3479C1.03797 15.2316 0.653207 15.1152 0.259494 15.0616C0.0536902 15.0347 0.00894801 15.0705 0 15.2853C0 15.5716 0 15.8579 0 16.1443M18.6029 20.8957C18.6029 21.1283 18.6029 21.361 18.6029 21.5936C18.6029 21.7636 18.6834 21.7994 18.8266 21.7099C19.3277 21.4146 19.8377 21.1194 20.3388 20.833C21.162 20.3588 21.9763 19.8845 22.7995 19.4192C22.9158 19.3566 22.9785 19.2671 22.9785 19.1329C22.9785 18.9181 22.9785 18.6944 22.9785 18.4797C22.9785 18.256 22.9427 18.2202 22.719 18.2649C22.4506 18.3186 22.1911 18.3723 21.9316 18.4439C21.4663 18.5692 21.0099 18.7213 20.5715 18.9271C19.9451 19.2134 19.3456 19.5713 18.7729 19.9472C18.6655 20.0187 18.6029 20.1082 18.6029 20.2424C18.6029 20.4572 18.6029 20.6809 18.6029 20.8957ZM4.27715 20.8509C4.27715 20.6272 4.27715 20.3946 4.27715 20.1709C4.27715 20.0635 4.24135 19.9919 4.14293 19.9293C3.94607 19.8129 3.75816 19.6877 3.56131 19.5713C3.1318 19.3119 2.6844 19.0792 2.22806 18.8734C1.88803 18.7213 1.548 18.596 1.19008 18.4976C0.876904 18.4081 0.55478 18.3365 0.232652 18.2739C0.0626393 18.2381 0.00895129 18.2918 0.00895129 18.4618C0.00895129 18.6855 0.0178993 18.9092 0.00895129 19.1329C0.00895129 19.2671 0.0715841 19.3566 0.17896 19.4192C0.322128 19.4998 0.465295 19.5803 0.608464 19.6608C1.1185 19.9561 1.62854 20.2514 2.13858 20.5377C2.78283 20.9046 3.41814 21.2804 4.0624 21.6473C4.20557 21.7278 4.2682 21.692 4.2682 21.522C4.2682 21.2983 4.2682 21.0746 4.2682 20.8509" fill="#E3B14B"/>
<path d="M43.1253 7.8651C43.1253 10.0595 42.3505 11.6506 40.8009 12.6386C39.8754 13.2314 38.747 13.5278 37.4158 13.5278C37.1038 13.5278 36.6254 13.5174 35.9806 13.4966C35.3463 13.4654 34.8679 13.4498 34.5455 13.4498C34.3791 13.4498 33.8903 13.4758 33.0791 13.5278L33.1727 10.673C33.1831 10.3506 33.1883 9.38867 33.1883 7.7871C33.1883 6.08154 33.1519 4.42797 33.0791 2.82641C33.7863 2.87841 34.2127 2.90441 34.3583 2.90441C34.6287 2.90441 35.0655 2.89401 35.6686 2.87321C36.2718 2.84201 36.7346 2.82641 37.057 2.82641C38.9914 2.82641 40.4161 3.1852 41.3313 3.90278C42.5273 4.83877 43.1253 6.15954 43.1253 7.8651ZM35.1071 5.61875V10.4546C35.1071 10.7042 35.1331 11.427 35.1851 12.623C36.329 12.675 37.0362 12.701 37.3066 12.701C38.1178 12.701 38.8614 12.4046 39.5374 11.8118C40.5045 10.9694 40.9881 9.67466 40.9881 7.9275C40.9881 6.74193 40.6969 5.77995 40.1146 5.04156C39.3866 4.11598 38.279 3.65319 36.7918 3.65319C36.3134 3.65319 35.7778 3.67919 35.1851 3.73119C35.1331 4.77117 35.1071 5.40035 35.1071 5.61875Z" fill="#575757"/>
<path d="M47.2174 2.82641L47.1706 4.01198C47.1394 4.80237 47.1238 6.14394 47.1238 8.0367C47.1238 9.32627 47.1498 10.1687 47.2018 10.5638C47.2538 11.0214 47.389 11.3958 47.6074 11.687C48.0754 12.3214 48.871 12.6386 49.9941 12.6386C50.6181 12.6386 51.1641 12.493 51.6321 12.2018C52.1001 11.9002 52.4225 11.5102 52.5993 11.0318C52.7345 10.6574 52.8021 9.95546 52.8021 8.92588C52.8021 6.37793 52.7553 4.34478 52.6617 2.82641C53.0985 2.88881 53.3325 2.92001 53.3637 2.92001C53.3845 2.92001 53.6289 2.88881 54.0969 2.82641L54.0501 3.57519C54.0085 4.24078 53.9565 6.28434 53.8941 9.70586C53.8733 10.5898 53.7329 11.2918 53.4729 11.8118C53.2337 12.2902 52.8437 12.701 52.3029 13.0442C51.6061 13.4914 50.7325 13.715 49.6821 13.715C48.559 13.715 47.623 13.5174 46.8742 13.1222C45.9278 12.6126 45.3766 11.8066 45.2206 10.7042C45.1998 10.5586 45.1894 10.2831 45.1894 9.87746V5.63435C45.1894 4.64637 45.1634 3.71039 45.1114 2.82641C45.5898 2.88881 45.9538 2.92001 46.2034 2.92001C46.4634 2.92001 46.8014 2.88881 47.2174 2.82641Z" fill="#575757"/>
<path d="M63.7013 10.5638C63.7013 11.3438 63.3841 12.0354 62.7497 12.6386C62.1257 13.2314 61.1897 13.5278 59.9417 13.5278C59.7233 13.5278 59.3957 13.5174 58.959 13.4966C58.5222 13.4654 58.1946 13.4498 57.9762 13.4498C57.789 13.4498 57.5394 13.4602 57.2274 13.481C56.8634 13.5122 56.6138 13.5278 56.4786 13.5278C56.5514 11.843 56.5878 9.99706 56.5878 7.9899C56.5878 5.85794 56.5462 4.13678 56.463 2.82641C56.6814 2.84721 57.1338 2.87321 57.8202 2.90441C57.945 2.90441 58.3142 2.89401 58.9278 2.87321C59.5413 2.84201 59.8949 2.82641 59.9885 2.82641C62.1621 2.82641 63.2489 3.66359 63.2489 5.33795C63.2489 6.00354 62.9681 6.56513 62.4065 7.02272C61.9281 7.41791 61.3301 7.66751 60.6125 7.7715C61.5901 7.8651 62.3181 8.0939 62.7965 8.45789C63.3997 8.91548 63.7013 9.61747 63.7013 10.5638ZM58.4754 8.2239V11.3594C58.4754 11.6402 58.4858 12.0718 58.5066 12.6542C58.9226 12.7166 59.2034 12.7478 59.3489 12.7478C60.8777 12.7478 61.6421 11.999 61.6421 10.5014C61.6421 9.64866 61.4081 9.03508 60.9401 8.66069C60.5241 8.33829 59.8897 8.1771 59.037 8.1771C58.8706 8.1771 58.6834 8.1927 58.4754 8.2239ZM58.4754 4.91676V7.42831C58.7666 7.44911 58.9798 7.45951 59.115 7.45951C60.5293 7.45951 61.2365 6.76792 61.2365 5.38475C61.2365 4.84397 61.0909 4.41237 60.7997 4.08998C60.5189 3.76759 60.1133 3.60639 59.5829 3.60639C59.2294 3.60639 58.8706 3.62199 58.5066 3.65319C58.4858 4.21478 58.4754 4.63597 58.4754 4.91676Z" fill="#575757"/>
<path d="M72.0784 13.5278L71.4232 11.7962L70.768 10.1427C69.8736 10.1011 69.2081 10.0803 68.7713 10.0803C68.3553 10.0803 67.7313 10.1011 66.8993 10.1427C66.2857 11.6194 65.8697 12.7478 65.6513 13.5278C65.2457 13.4654 64.9962 13.4342 64.9026 13.4342C64.8714 13.4342 64.6374 13.4654 64.2006 13.5278L66.0101 9.50307C67.6429 5.87354 68.5945 3.59599 68.8649 2.67041C69.0521 2.72241 69.2237 2.74841 69.3797 2.74841C69.5253 2.74841 69.6917 2.72241 69.8788 2.67041C70.4196 4.20958 71.1684 6.08674 72.1252 8.30189C73.0508 10.4442 73.8256 12.1862 74.4496 13.5278C73.5136 13.4654 73.108 13.4342 73.2328 13.4342C73.0664 13.4342 72.8532 13.4498 72.5932 13.481C72.2916 13.5122 72.12 13.5278 72.0784 13.5278ZM70.3156 9.17547L68.8493 5.33795L67.2581 9.17547C67.3829 9.17547 67.6533 9.18587 68.0693 9.20667C68.4021 9.22747 68.6725 9.23787 68.8805 9.23787C69.1925 9.23787 69.6709 9.21707 70.3156 9.17547Z" fill="#575757"/>
<path d="M75.9071 6.42993C75.9071 5.03636 75.8551 3.83519 75.7512 2.82641C76.3439 2.88881 76.7131 2.92001 76.8587 2.92001C77.0979 2.92001 77.4671 2.88881 77.9663 2.82641C77.8519 3.59599 77.7947 5.40555 77.7947 8.25509C77.7947 10.7198 77.8467 12.4774 77.9507 13.5278C77.8467 13.5278 77.6699 13.5122 77.4203 13.481C77.1811 13.4498 76.9939 13.4342 76.8587 13.4342C76.7339 13.4342 76.5467 13.4498 76.2971 13.481C76.0163 13.5122 75.8291 13.5278 75.7355 13.5278C75.8499 12.2902 75.9071 9.92426 75.9071 6.42993Z" fill="#575757"/>
<path d="M94.7078 7.8651C94.7078 10.0595 93.933 11.6506 92.3834 12.6386C91.4579 13.2314 90.3295 13.5278 88.9983 13.5278C88.6863 13.5278 88.2079 13.5174 87.5632 13.4966C86.9288 13.4654 86.4504 13.4498 86.128 13.4498C85.9616 13.4498 85.4728 13.4758 84.6616 13.5278L84.7552 10.673C84.7656 10.3506 84.7708 9.38867 84.7708 7.7871C84.7708 6.08154 84.7344 4.42797 84.6616 2.82641C85.3688 2.87841 85.7952 2.90441 85.9408 2.90441C86.2112 2.90441 86.648 2.89401 87.2512 2.87321C87.8543 2.84201 88.3171 2.82641 88.6395 2.82641C90.5739 2.82641 91.9987 3.1852 92.9138 3.90278C94.1098 4.83877 94.7078 6.15954 94.7078 7.8651ZM86.6896 5.61875V10.4546C86.6896 10.7042 86.7156 11.427 86.7676 12.623C87.9115 12.675 88.6187 12.701 88.8891 12.701C89.7003 12.701 90.4439 12.4046 91.1199 11.8118C92.0871 10.9694 92.5706 9.67466 92.5706 7.9275C92.5706 6.74193 92.2795 5.77995 91.6971 5.04156C90.9691 4.11598 89.8615 3.65319 88.3743 3.65319C87.8959 3.65319 87.3604 3.67919 86.7676 3.73119C86.7156 4.77117 86.6896 5.40035 86.6896 5.61875Z" fill="#575757"/>
<path d="M98.7999 2.82641L98.7531 4.01198C98.7219 4.80237 98.7063 6.14394 98.7063 8.0367C98.7063 9.32627 98.7323 10.1687 98.7843 10.5638C98.8363 11.0214 98.9715 11.3958 99.1899 11.687C99.6579 12.3214 100.453 12.6386 101.577 12.6386C102.201 12.6386 102.747 12.493 103.215 12.2018C103.683 11.9002 104.005 11.5102 104.182 11.0318C104.317 10.6574 104.385 9.95546 104.385 8.92588C104.385 6.37793 104.338 4.34478 104.244 2.82641C104.681 2.88881 104.915 2.92001 104.946 2.92001C104.967 2.92001 105.211 2.88881 105.679 2.82641L105.633 3.57519C105.591 4.24078 105.539 6.28434 105.477 9.70586C105.456 10.5898 105.315 11.2918 105.055 11.8118C104.816 12.2902 104.426 12.701 103.885 13.0442C103.189 13.4914 102.315 13.715 101.265 13.715C100.141 13.715 99.2055 13.5174 98.4567 13.1222C97.5103 12.6126 96.9591 11.8066 96.8032 10.7042C96.7824 10.5586 96.772 10.2831 96.772 9.87746V5.63435C96.772 4.64637 96.746 3.71039 96.694 2.82641C97.1723 2.88881 97.5363 2.92001 97.7859 2.92001C98.0459 2.92001 98.3839 2.88881 98.7999 2.82641Z" fill="#575757"/>
<path d="M108.17 9.33147V7.20992C108.17 6.22194 108.16 4.76077 108.139 2.82641C108.306 2.84721 108.43 2.85761 108.514 2.85761C108.586 2.85761 108.706 2.84721 108.872 2.82641C110.245 4.34478 111.831 5.98794 113.63 7.7559L115.471 9.56547C115.606 9.69026 115.866 9.91386 116.251 10.2363V6.77312C116.251 5.60835 116.189 4.29278 116.064 2.82641C116.313 2.88881 116.537 2.92001 116.735 2.92001C116.922 2.92001 117.14 2.88881 117.39 2.82641C117.275 4.36557 117.218 6.12314 117.218 8.0991C117.218 8.41109 117.223 9.08188 117.234 10.1115C117.234 11.1514 117.234 11.8014 117.234 12.0614C117.234 12.1758 117.239 12.4254 117.249 12.8102C117.249 13.2054 117.249 13.4706 117.249 13.6058C117.104 13.585 117 13.5746 116.937 13.5746C116.865 13.5746 116.755 13.585 116.61 13.6058C114.083 10.8602 111.592 8.36429 109.138 6.11794C109.138 7.68831 109.153 9.32627 109.184 11.0318C109.195 11.6038 109.242 12.4358 109.325 13.5278C109.293 13.5278 109.189 13.5122 109.013 13.481C108.836 13.4498 108.706 13.4342 108.623 13.4342C108.456 13.4342 108.248 13.4654 107.999 13.5278L108.124 11.3594C108.155 10.8186 108.17 10.1427 108.17 9.33147Z" fill="#575757"/>
<path d="M121.957 3.79359V7.45951C123.559 7.45951 124.682 7.42311 125.327 7.35031C125.275 7.53751 125.249 7.7247 125.249 7.9119C125.249 8.1407 125.275 8.31749 125.327 8.44229C124.38 8.36949 123.257 8.33309 121.957 8.33309V12.5606C122.893 12.5606 124.136 12.5242 125.685 12.4514C125.633 12.5658 125.607 12.7374 125.607 12.9662C125.607 13.195 125.633 13.3822 125.685 13.5278C124.749 13.4654 123.793 13.4342 122.815 13.4342C121.869 13.4342 120.896 13.4654 119.898 13.5278C119.929 12.7894 119.955 12.1394 119.976 11.5778C120.018 10.1947 120.038 9.01948 120.038 8.0523C120.038 5.90994 119.992 4.16798 119.898 2.82641C120.917 2.88881 121.858 2.92001 122.722 2.92001C122.992 2.92001 123.418 2.90961 124.001 2.88881C124.791 2.85761 125.321 2.83681 125.592 2.82641C125.54 3.0344 125.514 3.2008 125.514 3.3256C125.514 3.57519 125.54 3.76759 125.592 3.90278L124.125 3.82479C123.73 3.80399 123.008 3.79359 121.957 3.79359Z" fill="#575757"/>
<path d="M127.479 11.1878H127.698C128.031 11.9054 128.41 12.3994 128.837 12.6698C129.159 12.8778 129.585 12.9818 130.116 12.9818C130.729 12.9818 131.223 12.7998 131.598 12.4358C131.972 12.0718 132.159 11.6038 132.159 11.0318C132.159 10.1999 131.733 9.60187 130.88 9.23787C130.485 9.08188 129.949 8.86348 129.273 8.58269C128.535 8.26029 128.02 7.8859 127.729 7.45951C127.448 7.03312 127.308 6.48713 127.308 5.82154C127.308 4.98956 127.563 4.29798 128.072 3.74679C128.707 3.05 129.663 2.70161 130.943 2.70161C131.723 2.70161 132.586 2.91481 133.532 3.3412C133.324 3.86119 133.163 4.35518 133.049 4.82317H132.83C132.716 4.38637 132.471 4.05358 132.097 3.82479C131.733 3.58559 131.296 3.46599 130.787 3.46599C130.194 3.46599 129.736 3.62719 129.414 3.94958C129.102 4.26158 128.946 4.66197 128.946 5.15076C128.946 5.67075 129.138 6.07634 129.523 6.36753C129.762 6.55473 130.293 6.80952 131.114 7.13192C131.801 7.39191 132.248 7.57911 132.456 7.69351C132.768 7.8495 133.028 8.0419 133.236 8.27069C133.745 8.82188 134 9.50827 134 10.3299C134 11.2346 133.699 12.0042 133.095 12.6386C132.378 13.377 131.359 13.7462 130.038 13.7462C129.154 13.7462 128.181 13.481 127.121 12.9506C127.287 12.4306 127.407 11.843 127.479 11.1878Z" fill="#575757"/>
<path d="M49.5342 23.3084V17.2847H51.8835C52.4112 17.2847 52.8616 17.3678 53.2345 17.5342C53.6074 17.7006 53.8942 17.9415 54.095 18.2571C54.2958 18.5726 54.3962 18.9484 54.3962 19.3844C54.3962 19.8204 54.2958 20.1962 54.095 20.5117C53.8942 20.8215 53.6074 21.0624 53.2345 21.2345C52.8616 21.4009 52.4112 21.4841 51.8835 21.4841H50.0075L50.3947 21.0796V23.3084H49.5342ZM50.3947 21.1657L50.0075 20.7354H51.8576C52.4084 20.7354 52.8243 20.6178 53.1054 20.3826C53.3923 20.1474 53.5357 19.8146 53.5357 19.3844C53.5357 18.9541 53.3923 18.6214 53.1054 18.3862C52.8243 18.1509 52.4084 18.0333 51.8576 18.0333H50.0075L50.3947 17.6031V21.1657Z" fill="#E3B14B"/>
<path d="M57.0804 23.3084V17.2847H59.4296C59.9574 17.2847 60.4078 17.3678 60.7807 17.5342C61.1536 17.7006 61.4404 17.9415 61.6412 18.2571C61.842 18.5726 61.9424 18.9484 61.9424 19.3844C61.9424 19.8204 61.842 20.1962 61.6412 20.5117C61.4404 20.8215 61.1536 21.0596 60.7807 21.2259C60.4078 21.3923 59.9574 21.4755 59.4296 21.4755H57.5537L57.9409 21.0796V23.3084H57.0804ZM61.1077 23.3084L59.5759 21.1227H60.4967L62.0457 23.3084H61.1077ZM57.9409 21.1657L57.5537 20.744H59.4038C59.9546 20.744 60.3705 20.6264 60.6516 20.3912C60.9384 20.1503 61.0819 19.8146 61.0819 19.3844C61.0819 18.9541 60.9384 18.6214 60.6516 18.3862C60.3705 18.1509 59.9546 18.0333 59.4038 18.0333H57.5537L57.9409 17.6031V21.1657Z" fill="#E3B14B"/>
<path d="M67.4719 23.3773C67.013 23.3773 66.5856 23.2998 66.1897 23.1449C65.7996 22.99 65.4611 22.7749 65.1743 22.4995C64.8874 22.2184 64.6637 21.8914 64.503 21.5185C64.3424 21.1456 64.2621 20.7383 64.2621 20.2965C64.2621 19.8548 64.3424 19.4475 64.503 19.0746C64.6637 18.7017 64.8874 18.3775 65.1743 18.1022C65.4611 17.8211 65.7996 17.6031 66.1897 17.4482C66.5798 17.2933 67.0072 17.2158 67.4719 17.2158C67.9309 17.2158 68.3525 17.2933 68.7369 17.4482C69.127 17.5973 69.4655 17.8125 69.7523 18.0936C70.0449 18.3689 70.2687 18.6931 70.4236 19.066C70.5842 19.4389 70.6645 19.8491 70.6645 20.2965C70.6645 20.744 70.5842 21.1542 70.4236 21.5271C70.2687 21.9 70.0449 22.227 69.7523 22.5081C69.4655 22.7835 69.127 22.9986 68.7369 23.1535C68.3525 23.3027 67.9309 23.3773 67.4719 23.3773ZM67.4719 22.6114C67.8046 22.6114 68.1116 22.554 68.3927 22.4393C68.6795 22.3246 68.9262 22.1639 69.1327 21.9574C69.345 21.7451 69.5085 21.4984 69.6233 21.2173C69.7437 20.9362 69.804 20.6293 69.804 20.2965C69.804 19.9638 69.7437 19.6569 69.6233 19.3758C69.5085 19.0947 69.345 18.8508 69.1327 18.6443C68.9262 18.432 68.6795 18.2685 68.3927 18.1538C68.1116 18.0391 67.8046 17.9817 67.4719 17.9817C67.1334 17.9817 66.8208 18.0391 66.5339 18.1538C66.2528 18.2685 66.0061 18.432 65.7939 18.6443C65.5816 18.8508 65.4152 19.0947 65.2947 19.3758C65.18 19.6569 65.1226 19.9638 65.1226 20.2965C65.1226 20.6293 65.18 20.9362 65.2947 21.2173C65.4152 21.4984 65.5816 21.7451 65.7939 21.9574C66.0061 22.1639 66.2528 22.3246 66.5339 22.4393C66.8208 22.554 67.1334 22.6114 67.4719 22.6114Z" fill="#E3B14B"/>
<path d="M73.3997 23.3084V17.2847H75.7489C76.2767 17.2847 76.7271 17.3678 77.1 17.5342C77.4729 17.7006 77.7597 17.9415 77.9605 18.2571C78.1613 18.5726 78.2617 18.9484 78.2617 19.3844C78.2617 19.8204 78.1613 20.1962 77.9605 20.5117C77.7597 20.8215 77.4729 21.0624 77.1 21.2345C76.7271 21.4009 76.2767 21.4841 75.7489 21.4841H73.873L74.2602 21.0796V23.3084H73.3997ZM74.2602 21.1657L73.873 20.7354H75.7231C76.2739 20.7354 76.6898 20.6178 76.9709 20.3826C77.2578 20.1474 77.4012 19.8146 77.4012 19.3844C77.4012 18.9541 77.2578 18.6214 76.9709 18.3862C76.6898 18.1509 76.2739 18.0333 75.7231 18.0333H73.873L74.2602 17.6031V21.1657Z" fill="#E3B14B"/>
<path d="M81.7289 19.8835H84.8269V20.6149H81.7289V19.8835ZM81.8064 22.5598H85.3174V23.3084H80.9459V17.2847H85.1969V18.0333H81.8064V22.5598Z" fill="#E3B14B"/>
<path d="M88.1307 23.3084V17.2847H90.4799C91.0077 17.2847 91.4581 17.3678 91.831 17.5342C92.2039 17.7006 92.4907 17.9415 92.6915 18.2571C92.8923 18.5726 92.9927 18.9484 92.9927 19.3844C92.9927 19.8204 92.8923 20.1962 92.6915 20.5117C92.4907 20.8215 92.2039 21.0596 91.831 21.2259C91.4581 21.3923 91.0077 21.4755 90.4799 21.4755H88.604L88.9912 21.0796V23.3084H88.1307ZM92.158 23.3084L90.6262 21.1227H91.547L93.096 23.3084H92.158ZM88.9912 21.1657L88.604 20.744H90.4541C91.0049 20.744 91.4208 20.6264 91.7019 20.3912C91.9888 20.1503 92.1322 19.8146 92.1322 19.3844C92.1322 18.9541 91.9888 18.6214 91.7019 18.3862C91.4208 18.1509 91.0049 18.0333 90.4541 18.0333H88.604L88.9912 17.6031V21.1657Z" fill="#E3B14B"/>
<path d="M96.915 23.3084V18.0333H94.8497V17.2847H99.8323V18.0333H97.767V23.3084H96.915Z" fill="#E3B14B"/>
<path d="M102.189 23.3084V17.2847H103.05V23.3084H102.189Z" fill="#E3B14B"/>
<path d="M107.056 19.8835H110.154V20.6149H107.056V19.8835ZM107.134 22.5598H110.645V23.3084H106.273V17.2847H110.524V18.0333H107.134V22.5598Z" fill="#E3B14B"/>
<path d="M115.214 23.3773C114.755 23.3773 114.316 23.3084 113.897 23.1707C113.478 23.0273 113.148 22.8437 112.907 22.62L113.226 21.9488C113.455 22.1496 113.748 22.3159 114.103 22.4479C114.459 22.5798 114.829 22.6458 115.214 22.6458C115.564 22.6458 115.848 22.6057 116.066 22.5253C116.284 22.445 116.444 22.336 116.547 22.1983C116.651 22.0549 116.702 21.8943 116.702 21.7164C116.702 21.5099 116.633 21.3435 116.496 21.2173C116.364 21.0911 116.189 20.9907 115.971 20.9161C115.759 20.8358 115.523 20.767 115.265 20.7096C115.007 20.6522 114.746 20.5863 114.482 20.5117C114.224 20.4314 113.986 20.331 113.768 20.2105C113.556 20.09 113.383 19.9294 113.252 19.7286C113.12 19.5221 113.054 19.2582 113.054 18.9369C113.054 18.6271 113.134 18.3431 113.295 18.085C113.461 17.8211 113.713 17.6117 114.052 17.4568C114.396 17.2961 114.832 17.2158 115.36 17.2158C115.71 17.2158 116.057 17.2617 116.401 17.3535C116.745 17.4453 117.044 17.5772 117.296 17.7494L117.012 18.4378C116.754 18.2657 116.481 18.1423 116.195 18.0678C115.908 17.9874 115.63 17.9473 115.36 17.9473C115.021 17.9473 114.743 17.9903 114.525 18.0764C114.307 18.1624 114.147 18.2772 114.043 18.4206C113.946 18.564 113.897 18.7246 113.897 18.9025C113.897 19.1147 113.963 19.284 114.095 19.4102C114.233 19.5364 114.408 19.6368 114.62 19.7114C114.838 19.786 115.076 19.8548 115.334 19.9179C115.592 19.9753 115.85 20.0413 116.109 20.1158C116.372 20.1904 116.611 20.2879 116.823 20.4084C117.041 20.5289 117.216 20.6895 117.348 20.8903C117.48 21.0911 117.546 21.3493 117.546 21.6648C117.546 21.9689 117.462 22.2528 117.296 22.5167C117.13 22.7749 116.872 22.9843 116.522 23.1449C116.177 23.2998 115.741 23.3773 115.214 23.3773Z" fill="#E3B14B"/>
</svg>
