<svg width="138" height="42" viewBox="0 0 138 42" fill="none" xmlns="http://www.w3.org/2000/svg">
<path d="M68.6501 8.33979C68.03 8.33979 67.4526 8.23515 66.9178 8.02588C66.3907 7.81661 65.9334 7.52595 65.5459 7.15391C65.1583 6.77412 64.856 6.33232 64.639 5.82851C64.422 5.32471 64.3135 4.7744 64.3135 4.17758C64.3135 3.58077 64.422 3.03046 64.639 2.52665C64.856 2.02285 65.1583 1.58493 65.5459 1.21289C65.9334 0.833095 66.3907 0.538562 66.9178 0.329289C67.4448 0.120017 68.0223 0.0153809 68.6501 0.0153809C69.2701 0.0153809 69.8398 0.120017 70.3591 0.329289C70.8862 0.530812 71.3435 0.821468 71.731 1.20126C72.1263 1.5733 72.4286 2.01122 72.6379 2.51503C72.8549 3.01883 72.9634 3.57302 72.9634 4.17758C72.9634 4.78215 72.8549 5.33634 72.6379 5.84014C72.4286 6.34395 72.1263 6.78574 71.731 7.16553C71.3435 7.53758 70.8862 7.82823 70.3591 8.0375C69.8398 8.23903 69.2701 8.33979 68.6501 8.33979ZM68.6501 7.30505C69.0996 7.30505 69.5143 7.22754 69.8941 7.07252C70.2816 6.91751 70.6149 6.70048 70.8939 6.42145C71.1807 6.13467 71.4016 5.80139 71.5566 5.42159C71.7194 5.0418 71.8008 4.62713 71.8008 4.17758C71.8008 3.72803 71.7194 3.31336 71.5566 2.93357C71.4016 2.55378 71.1807 2.22437 70.8939 1.94534C70.6149 1.65856 70.2816 1.43766 69.8941 1.28264C69.5143 1.12763 69.0996 1.05012 68.6501 1.05012C68.1928 1.05012 67.7704 1.12763 67.3828 1.28264C67.003 1.43766 66.6697 1.65856 66.383 1.94534C66.0962 2.22437 65.8714 2.55378 65.7086 2.93357C65.5536 3.31336 65.4761 3.72803 65.4761 4.17758C65.4761 4.62713 65.5536 5.0418 65.7086 5.42159C65.8714 5.80139 66.0962 6.13467 66.383 6.42145C66.6697 6.70048 67.003 6.91751 67.3828 7.07252C67.7704 7.22754 68.1928 7.30505 68.6501 7.30505Z" fill="#000E22"/>
<path d="M75.6705 3.95669H79.8676V4.95654H75.6705V3.95669ZM75.7868 8.24678H74.6242V0.10839H80.3675V1.11988H75.7868V8.24678Z" fill="#000E22"/>
<path d="M82.9342 3.95669H87.1313V4.95654H82.9342V3.95669ZM83.0505 8.24678H81.8878V0.10839H87.6312V1.11988H83.0505V8.24678Z" fill="#000E22"/>
<path d="M89.1515 8.24678V0.10839H92.3255C93.0386 0.10839 93.647 0.220778 94.1508 0.445553C94.6546 0.670327 95.0422 0.995862 95.3135 1.42216C95.5847 1.84846 95.7204 2.35614 95.7204 2.9452C95.7204 3.53426 95.5847 4.04194 95.3135 4.46824C95.0422 4.88679 94.6546 5.21232 94.1508 5.44485C93.647 5.66962 93.0386 5.78201 92.3255 5.78201H89.791L90.3142 5.23557V8.24678H89.1515ZM90.3142 5.35184L89.791 4.77052H92.2906C93.0347 4.77052 93.5966 4.61163 93.9764 4.29385C94.364 3.97606 94.5578 3.52651 94.5578 2.9452C94.5578 2.36389 94.364 1.91434 93.9764 1.59655C93.5966 1.27877 93.0347 1.11988 92.2906 1.11988H89.791L90.3142 0.538562V5.35184Z" fill="#000E22"/>
<path d="M97.3122 8.24678V0.10839H98.4748V7.23529H102.881V8.24678H97.3122Z" fill="#000E22"/>
<path d="M102.867 8.24678L106.552 0.10839H107.703L111.4 8.24678H110.18L106.889 0.759461H107.354L104.064 8.24678H102.867ZM104.436 6.21218L104.75 5.28208H109.331L109.668 6.21218H104.436Z" fill="#000E22"/>
<path d="M112.498 8.24678V0.10839H113.451L118.834 6.79349H118.334V0.10839H119.497V8.24678H118.544L113.161 1.56167H113.661V8.24678H112.498Z" fill="#000E22"/>
<path d="M64.3135 20.1001V11.9617H67.7432C68.6113 11.9617 69.3748 12.1322 70.0336 12.4732C70.7002 12.8143 71.2156 13.2909 71.5799 13.9033C71.9519 14.5156 72.138 15.2248 72.138 16.0309C72.138 16.837 71.9519 17.5462 71.5799 18.1585C71.2156 18.7708 70.7002 19.2475 70.0336 19.5885C69.3748 19.9295 68.6113 20.1001 67.7432 20.1001H64.3135ZM65.4761 19.0886H67.6735C68.3478 19.0886 68.9291 18.9607 69.4174 18.7049C69.9135 18.4491 70.2971 18.0926 70.5684 17.6353C70.8397 17.1702 70.9753 16.6354 70.9753 16.0309C70.9753 15.4185 70.8397 14.8837 70.5684 14.4264C70.2971 13.9691 69.9135 13.6126 69.4174 13.3568C68.9291 13.101 68.3478 12.9732 67.6735 12.9732H65.4761V19.0886Z" fill="#000E22"/>
<path d="M77.1741 20.1931C76.1045 20.1931 75.2635 19.8869 74.6512 19.2746C74.0389 18.6623 73.7327 17.7671 73.7327 16.5889V11.9617H74.8954V16.5424C74.8954 17.4493 75.093 18.112 75.4883 18.5305C75.8914 18.9491 76.4572 19.1583 77.1857 19.1583C77.9221 19.1583 78.4879 18.9491 78.8832 18.5305C79.2862 18.112 79.4878 17.4493 79.4878 16.5424V11.9617H80.6155V16.5889C80.6155 17.7671 80.3093 18.6623 79.697 19.2746C79.0925 19.8869 78.2515 20.1931 77.1741 20.1931Z" fill="#000E22"/>
<path d="M82.8828 20.1001V11.9617H86.5334C87.4713 11.9617 88.1921 12.1516 88.6959 12.5314C89.1997 12.9034 89.4516 13.415 89.4516 14.066C89.4516 14.5078 89.3509 14.8799 89.1494 15.1821C88.9556 15.4844 88.6921 15.717 88.3588 15.8797C88.0255 16.0425 87.6651 16.1239 87.2775 16.1239L87.4868 15.7751C87.9519 15.7751 88.3626 15.8565 88.7192 16.0192C89.0757 16.182 89.3586 16.4223 89.5679 16.7401C89.7772 17.0501 89.8818 17.4376 89.8818 17.9027C89.8818 18.6003 89.6183 19.1428 89.0912 19.5304C88.5719 19.9102 87.7968 20.1001 86.766 20.1001H82.8828ZM84.0454 19.1583H86.7195C87.3628 19.1583 87.855 19.0498 88.196 18.8328C88.537 18.6158 88.7076 18.2747 88.7076 17.8097C88.7076 17.3369 88.537 16.992 88.196 16.7749C87.855 16.5579 87.3628 16.4494 86.7195 16.4494H83.9408V15.5077H86.4288C87.0179 15.5077 87.4752 15.3992 87.8007 15.1821C88.1262 14.9651 88.289 14.6396 88.289 14.2055C88.289 13.7715 88.1262 13.446 87.8007 13.2289C87.4752 13.0119 87.0179 12.9034 86.4288 12.9034H84.0454V19.1583Z" fill="#000E22"/>
<path d="M90.3333 20.1001L94.0189 11.9617H95.1699L98.867 20.1001H97.6462L94.356 12.6127H94.8211L91.5308 20.1001H90.3333ZM91.9029 18.0655L92.2168 17.1354H96.7975L97.1347 18.0655H91.9029Z" fill="#000E22"/>
<path d="M99.9648 20.1001V11.9617H101.127V20.1001H99.9648Z" fill="#000E22"/>
<path d="M64.3135 32.0468V23.9084H67.4874C68.2005 23.9084 68.809 24.0208 69.3128 24.2456C69.8166 24.4704 70.2041 24.7959 70.4754 25.2222C70.7467 25.6485 70.8823 26.1562 70.8823 26.7452C70.8823 27.3343 70.7467 27.842 70.4754 28.2683C70.2041 28.6868 69.8166 29.0124 69.3128 29.2449C68.809 29.4697 68.2005 29.5821 67.4874 29.5821H64.9529L65.4761 29.0356V32.0468H64.3135ZM65.4761 29.1519L64.9529 28.5706H67.4526C68.1967 28.5706 68.7586 28.4117 69.1384 28.0939C69.5259 27.7761 69.7197 27.3266 69.7197 26.7452C69.7197 26.1639 69.5259 25.7144 69.1384 25.3966C68.7586 25.0788 68.1967 24.9199 67.4526 24.9199H64.9529L65.4761 24.3386V29.1519Z" fill="#000E22"/>
<path d="M72.4741 32.0468V23.9084H75.6481C76.3612 23.9084 76.9696 24.0208 77.4734 24.2456C77.9772 24.4704 78.3648 24.7959 78.636 25.2222C78.9073 25.6485 79.043 26.1562 79.043 26.7452C79.043 27.3343 78.9073 27.842 78.636 28.2683C78.3648 28.6868 77.9772 29.0085 77.4734 29.2333C76.9696 29.458 76.3612 29.5704 75.6481 29.5704H73.1136L73.6367 29.0356V32.0468H72.4741ZM77.9152 32.0468L75.8457 29.0938H77.0897L79.1825 32.0468H77.9152ZM73.6367 29.1519L73.1136 28.5822H75.6132C76.3573 28.5822 76.9192 28.4233 77.299 28.1055C77.6866 27.78 77.8803 27.3266 77.8803 26.7452C77.8803 26.1639 77.6866 25.7144 77.299 25.3966C76.9192 25.0788 76.3573 24.9199 75.6132 24.9199H73.1136L73.6367 24.3386V29.1519Z" fill="#000E22"/>
<path d="M84.479 32.1398C83.8589 32.1398 83.2815 32.0352 82.7467 31.8259C82.2196 31.6167 81.7623 31.326 81.3748 30.954C80.9872 30.5742 80.6849 30.1324 80.4679 29.6286C80.2509 29.1248 80.1424 28.5744 80.1424 27.9776C80.1424 27.3808 80.2509 26.8305 80.4679 26.3267C80.6849 25.8229 80.9872 25.385 81.3748 25.0129C81.7623 24.6331 82.2196 24.3386 82.7467 24.1293C83.2737 23.9201 83.8511 23.8154 84.479 23.8154C85.099 23.8154 85.6687 23.9201 86.188 24.1293C86.7151 24.3309 87.1724 24.6215 87.5599 25.0013C87.9552 25.3733 88.2575 25.8113 88.4668 26.3151C88.6838 26.8189 88.7923 27.3731 88.7923 27.9776C88.7923 28.5822 88.6838 29.1364 88.4668 29.6402C88.2575 30.144 87.9552 30.5858 87.5599 30.9656C87.1724 31.3376 86.7151 31.6283 86.188 31.8376C85.6687 32.0391 85.099 32.1398 84.479 32.1398ZM84.479 31.1051C84.9285 31.1051 85.3432 31.0276 85.723 30.8726C86.1105 30.7176 86.4438 30.5005 86.7228 30.2215C87.0096 29.9347 87.2305 29.6014 87.3855 29.2216C87.5483 28.8419 87.6297 28.4272 87.6297 27.9776C87.6297 27.5281 87.5483 27.1134 87.3855 26.7336C87.2305 26.3538 87.0096 26.0244 86.7228 25.7454C86.4438 25.4586 86.1105 25.2377 85.723 25.0827C85.3432 24.9277 84.9285 24.8502 84.479 24.8502C84.0217 24.8502 83.5992 24.9277 83.2117 25.0827C82.8319 25.2377 82.4986 25.4586 82.2118 25.7454C81.9251 26.0244 81.7003 26.3538 81.5375 26.7336C81.3825 27.1134 81.305 27.5281 81.305 27.9776C81.305 28.4272 81.3825 28.8419 81.5375 29.2216C81.7003 29.6014 81.9251 29.9347 82.2118 30.2215C82.4986 30.5005 82.8319 30.7176 83.2117 30.8726C83.5992 31.0276 84.0217 31.1051 84.479 31.1051Z" fill="#000E22"/>
<path d="M90.453 32.0468V23.9084H93.627C94.3401 23.9084 94.9485 24.0208 95.4523 24.2456C95.9562 24.4704 96.3437 24.7959 96.615 25.2222C96.8862 25.6485 97.0219 26.1562 97.0219 26.7452C97.0219 27.3343 96.8862 27.842 96.615 28.2683C96.3437 28.6868 95.9562 29.0124 95.4523 29.2449C94.9485 29.4697 94.3401 29.5821 93.627 29.5821H91.0925L91.6157 29.0356V32.0468H90.453ZM91.6157 29.1519L91.0925 28.5706H93.5921C94.3362 28.5706 94.8982 28.4117 95.278 28.0939C95.6655 27.7761 95.8593 27.3266 95.8593 26.7452C95.8593 26.1639 95.6655 25.7144 95.278 25.3966C94.8982 25.0788 94.3362 24.9199 93.5921 24.9199H91.0925L91.6157 24.3386V29.1519Z" fill="#000E22"/>
<path d="M99.6717 27.4196H103.857V28.4078H99.6717V27.4196ZM99.7763 31.0353H104.52V32.0468H98.6137V23.9084H104.357V24.9199H99.7763V31.0353Z" fill="#000E22"/>
<path d="M106.286 32.0468V23.9084H109.46C110.173 23.9084 110.782 24.0208 111.285 24.2456C111.789 24.4704 112.177 24.7959 112.448 25.2222C112.719 25.6485 112.855 26.1562 112.855 26.7452C112.855 27.3343 112.719 27.842 112.448 28.2683C112.177 28.6868 111.789 29.0085 111.285 29.2333C110.782 29.458 110.173 29.5704 109.46 29.5704H106.926L107.449 29.0356V32.0468H106.286ZM111.727 32.0468L109.658 29.0938H110.902L112.994 32.0468H111.727ZM107.449 29.1519L106.926 28.5822H109.425C110.169 28.5822 110.731 28.4233 111.111 28.1055C111.499 27.78 111.692 27.3266 111.692 26.7452C111.692 26.1639 111.499 25.7144 111.111 25.3966C110.731 25.0788 110.169 24.9199 109.425 24.9199H106.926L107.449 24.3386V29.1519Z" fill="#000E22"/>
<path d="M116.12 32.0468V24.9199H113.329V23.9084H120.061V24.9199H117.271V32.0468H116.12Z" fill="#000E22"/>
<path d="M121.211 32.0468V23.9084H122.374V32.0468H121.211Z" fill="#000E22"/>
<path d="M125.752 27.4196H129.937V28.4078H125.752V27.4196ZM125.856 31.0353H130.6V32.0468H124.694V23.9084H130.437V24.9199H125.856V31.0353Z" fill="#000E22"/>
<path d="M134.738 32.1398C134.118 32.1398 133.525 32.0468 132.959 31.8608C132.393 31.667 131.948 31.419 131.622 31.1167L132.052 30.2099C132.362 30.4812 132.758 30.7059 133.238 30.8842C133.719 31.0625 134.219 31.1516 134.738 31.1516C135.211 31.1516 135.594 31.0973 135.889 30.9888C136.183 30.8803 136.401 30.7331 136.54 30.547C136.68 30.3533 136.749 30.1362 136.749 29.896C136.749 29.6169 136.656 29.3922 136.47 29.2216C136.292 29.0511 136.056 28.9155 135.761 28.8147C135.474 28.7062 135.157 28.6132 134.808 28.5357C134.459 28.4582 134.106 28.3691 133.75 28.2683C133.401 28.1598 133.079 28.0241 132.785 27.8614C132.498 27.6986 132.265 27.4816 132.087 27.2103C131.909 26.9313 131.82 26.5747 131.82 26.1407C131.82 25.7221 131.928 25.3385 132.145 24.9897C132.37 24.6331 132.711 24.3502 133.168 24.141C133.633 23.9239 134.223 23.8154 134.936 23.8154C135.408 23.8154 135.877 23.8774 136.342 24.0014C136.807 24.1255 137.21 24.3037 137.552 24.5363L137.168 25.4664C136.819 25.2338 136.451 25.0672 136.063 24.9664C135.676 24.8579 135.3 24.8037 134.936 24.8037C134.478 24.8037 134.102 24.8618 133.808 24.9781C133.513 25.0943 133.296 25.2493 133.157 25.4431C133.025 25.6369 132.959 25.8539 132.959 26.0942C132.959 26.381 133.048 26.6096 133.227 26.7801C133.413 26.9506 133.649 27.0863 133.936 27.187C134.23 27.2878 134.552 27.3808 134.901 27.4661C135.25 27.5436 135.598 27.6327 135.947 27.7335C136.304 27.8342 136.625 27.966 136.912 28.1288C137.207 28.2915 137.443 28.5086 137.621 28.7798C137.8 29.0511 137.889 29.3999 137.889 29.8262C137.889 30.237 137.776 30.6207 137.552 30.9772C137.327 31.326 136.978 31.6089 136.505 31.8259C136.04 32.0352 135.451 32.1398 134.738 32.1398Z" fill="#000E22"/>
<path d="M43.4618 18.057H45.4382C46.1823 18.057 46.7442 17.8981 47.124 17.5803C47.5116 17.2626 47.7053 16.813 47.7053 16.2317C47.7053 15.6504 47.5116 15.2008 47.124 14.8831C46.7442 14.5653 46.1823 14.4064 45.4382 14.4064H43.4618V18.057Z" fill="url(#paint0_linear_107_842)"/>
<path fill-rule="evenodd" clip-rule="evenodd" d="M37.2956 5.33267H53.8715V22.3297C51.9795 22.2537 50.0401 22.3967 48.1707 22.7674C45.3642 23.324 43.0776 24.3685 40.0066 26.4966C38.5878 27.4798 37.8188 28.0094 37.2956 28.3573L37.2956 5.33267ZM43.4618 21.5333H42.2991V13.3949H45.4731C46.1862 13.3949 46.7946 13.5073 47.2984 13.7321C47.8022 13.9568 48.1898 14.2824 48.4611 14.7087C48.7323 15.135 48.868 15.6426 48.868 16.2317C48.868 16.8208 48.7323 17.3284 48.4611 17.7547C48.1898 18.1733 47.8022 18.4988 47.2984 18.7313C46.7946 18.9561 46.1862 19.0685 45.4731 19.0685H43.4618V21.5333Z" fill="url(#paint1_linear_107_842)"/>
<path d="M26.3835 20.5218H24.1861V14.4064H26.3835C27.0578 14.4064 27.6391 14.5343 28.1274 14.79C28.6235 15.0458 29.0072 15.4024 29.2784 15.8597C29.5497 16.317 29.6854 16.8518 29.6854 17.4641C29.6854 18.0687 29.5497 18.6035 29.2784 19.0685C29.0072 19.5258 28.6235 19.8823 28.1274 20.1381C27.6391 20.3939 27.0578 20.5218 26.3835 20.5218Z" fill="url(#paint2_linear_107_842)"/>
<path fill-rule="evenodd" clip-rule="evenodd" d="M35.2237 29.5847V0.118896H18.6478V29.8285C21.1176 31.0217 23.5244 31.5003 26.6637 31.501C30.0582 31.5017 32.5971 30.9458 35.2237 29.5847ZM23.0235 21.5333V13.3949H26.4533C27.3214 13.3949 28.0848 13.5654 28.7436 13.9064C29.4102 14.2475 29.9256 14.7242 30.2899 15.3365C30.662 15.9488 30.848 16.658 30.848 17.4641C30.848 18.2702 30.662 18.9794 30.2899 19.5917C29.9256 20.204 29.4102 20.6807 28.7436 21.0217C28.0848 21.3628 27.3214 21.5333 26.4533 21.5333H23.0235Z" fill="url(#paint3_linear_107_842)"/>
<path d="M18.6478 32.4508C18.9264 32.5665 19.1698 32.6499 19.7756 32.8562C22.6521 33.8359 26.2817 34.1447 29.8187 33.7108C31.7273 33.4766 33.4965 32.995 35.2237 32.2322V34.7342C32.6312 36.0592 30.113 36.6016 26.76 36.6009C23.58 36.6002 21.1514 36.1091 18.6478 34.8816V32.4508Z" fill="url(#paint4_linear_107_842)"/>
<path d="M8.29955 20.4986C8.7491 20.4986 9.16377 20.4211 9.54356 20.266C9.9311 20.111 10.2644 19.894 10.5434 19.615C10.8302 19.3282 11.0511 18.9949 11.2061 18.6151C11.3689 18.2353 11.4503 17.8207 11.4503 17.3711C11.4503 16.9216 11.3689 16.5069 11.2061 16.1271C11.0511 15.7473 10.8302 15.4179 10.5434 15.1389C10.2644 14.8521 9.9311 14.6312 9.54356 14.4762C9.16377 14.3211 8.7491 14.2436 8.29955 14.2436C7.84225 14.2436 7.41983 14.3211 7.03229 14.4762C6.6525 14.6312 6.31921 14.8521 6.03243 15.1389C5.74565 15.4179 5.52087 15.7473 5.35811 16.1271C5.20309 16.5069 5.12558 16.9216 5.12558 17.3711C5.12558 17.8207 5.20309 18.2353 5.35811 18.6151C5.52087 18.9949 5.74565 19.3282 6.03243 19.615C6.31921 19.894 6.6525 20.111 7.03229 20.266C7.41983 20.4211 7.84225 20.4986 8.29955 20.4986Z" fill="url(#paint5_linear_107_842)"/>
<path fill-rule="evenodd" clip-rule="evenodd" d="M16.5758 28.6748V5.33267H0V22.3158C1.1957 22.2916 2.41032 22.3536 3.61525 22.505C6.4523 22.8614 8.90777 23.7106 11.3547 25.1816C12.1721 25.673 12.9221 26.1718 14.3762 27.191C14.9698 27.607 15.7284 28.1265 16.0621 28.3454C16.2347 28.4587 16.4059 28.5684 16.5758 28.6748ZM8.29955 21.5333C7.67948 21.5333 7.10205 21.4287 6.56724 21.2194C6.04018 21.0101 5.58288 20.7195 5.19534 20.3474C4.8078 19.9676 4.50551 19.5258 4.28849 19.022C4.07147 18.5182 3.96295 17.9679 3.96295 17.3711C3.96295 16.7743 4.07147 16.224 4.28849 15.7202C4.50551 15.2164 4.8078 14.7784 5.19534 14.4064C5.58288 14.0266 6.04018 13.7321 6.56724 13.5228C7.09429 13.3135 7.67173 13.2089 8.29955 13.2089C8.91962 13.2089 9.48931 13.3135 10.0086 13.5228C10.5357 13.7243 10.993 14.015 11.3805 14.3948C11.7758 14.7668 12.0781 15.2047 12.2874 15.7085C12.5044 16.2124 12.6129 16.7665 12.6129 17.3711C12.6129 17.9757 12.5044 18.5299 12.2874 19.0337C12.0781 19.5375 11.7758 19.9793 11.3805 20.3591C10.993 20.7311 10.5357 21.0217 10.0086 21.231C9.48931 21.4325 8.91962 21.5333 8.29955 21.5333Z" fill="url(#paint6_linear_107_842)"/>
<path d="M0 24.7214C0.879634 24.7117 1.89206 24.7261 2.3388 24.7647C4.85177 24.9821 6.82055 25.5103 8.80155 26.4987C9.87252 27.0329 10.7967 27.6096 12.6468 28.8978C14.5275 30.2073 15.6064 30.9187 16.5758 31.4546V33.7142C16.4376 33.6268 16.2985 33.5372 16.1584 33.4454C15.8247 33.2264 15.0661 32.707 14.4726 32.2909C13.0185 31.2717 12.2684 30.773 11.451 30.2815C9.00409 28.8106 6.54862 27.9614 3.71157 27.6049C2.47428 27.4495 1.22676 27.3883 0 27.4179V24.7214Z" fill="url(#paint7_linear_107_842)"/>
<path d="M37.2956 31.1718C37.3883 31.1178 37.481 31.063 37.5737 31.0073C38.4458 30.4834 38.9644 30.1385 40.4156 29.1181C43.2946 27.0938 44.7534 26.2781 46.6293 25.6436C48.4614 25.024 50.0737 24.7693 52.4192 24.7291C52.9256 24.7204 53.4083 24.7233 53.8715 24.7383V27.426C52.01 27.3586 50.1047 27.5029 48.267 27.8674C45.4606 28.4239 43.1739 29.4684 40.1029 31.5966C38.5945 32.6418 37.8205 33.1745 37.2956 33.5211V31.1718Z" fill="url(#paint8_linear_107_842)"/>
<path d="M52.5155 29.8291C52.9869 29.821 53.4378 29.8229 53.8715 29.8353V32.3804C52.01 32.313 50.1047 32.4574 48.267 32.8218C45.4606 33.3783 43.1739 34.4228 40.1029 36.551C38.5945 37.5963 37.8205 38.1289 37.2956 38.4755V36.3275C37.4204 36.2557 37.5452 36.1822 37.6701 36.1072C38.5421 35.5833 39.0608 35.2385 40.512 34.2181C43.3909 32.1937 44.8497 31.378 46.7256 30.7435C48.5578 30.1239 50.17 29.8692 52.5155 29.8291Z" fill="url(#paint9_linear_107_842)"/>
<path d="M19.872 37.9562C19.1976 37.7265 18.9724 37.6492 18.6478 37.5101V39.836C21.1514 41.0636 23.58 41.5547 26.76 41.5553C30.113 41.556 32.6312 41.0136 35.2237 39.6887V37.3743C33.527 38.1128 31.7881 38.5809 29.915 38.8107C26.3781 39.2446 22.7485 38.9358 19.872 37.9562Z" fill="url(#paint10_linear_107_842)"/>
<path d="M2.43512 29.8647C1.97198 29.8246 0.900846 29.8106 0 29.8225V32.3723C1.22676 32.3427 2.47428 32.4039 3.71157 32.5594C6.54862 32.9158 9.00409 33.765 11.451 35.236C12.2684 35.7274 13.0185 36.2262 14.4726 37.2454C15.0661 37.6614 15.8247 38.1809 16.1584 38.3998C16.2985 38.4917 16.4376 38.5813 16.5758 38.6686V36.5009C15.6306 35.971 14.5618 35.264 12.7431 33.9977C10.893 32.7095 9.96884 32.1329 8.89787 31.5986C6.91687 30.6102 4.94809 30.082 2.43512 29.8647Z" fill="url(#paint11_linear_107_842)"/>
<defs>
<linearGradient id="paint0_linear_107_842" x1="2.00687e-07" y1="20.8371" x2="53.8715" y2="20.8371" gradientUnits="userSpaceOnUse">
<stop stop-color="#5e0d8b"/>
<stop offset="1" stop-color="#7f35a8"/>
</linearGradient>
<linearGradient id="paint1_linear_107_842" x1="2.00687e-07" y1="20.8371" x2="53.8715" y2="20.8371" gradientUnits="userSpaceOnUse">
<stop stop-color="#5e0d8b"/>
<stop offset="1" stop-color="#7f35a8"/>
</linearGradient>
<linearGradient id="paint2_linear_107_842" x1="2.00687e-07" y1="20.8371" x2="53.8715" y2="20.8371" gradientUnits="userSpaceOnUse">
<stop stop-color="#5e0d8b"/>
<stop offset="1" stop-color="#7f35a8"/>
</linearGradient>
<linearGradient id="paint3_linear_107_842" x1="2.00687e-07" y1="20.8371" x2="53.8715" y2="20.8371" gradientUnits="userSpaceOnUse">
<stop stop-color="#5e0d8b"/>
<stop offset="1" stop-color="#7f35a8"/>
</linearGradient>
<linearGradient id="paint4_linear_107_842" x1="2.00687e-07" y1="20.8371" x2="53.8715" y2="20.8371" gradientUnits="userSpaceOnUse">
<stop stop-color="#5e0d8b"/>
<stop offset="1" stop-color="#7f35a8"/>
</linearGradient>
<linearGradient id="paint5_linear_107_842" x1="2.00687e-07" y1="20.8371" x2="53.8715" y2="20.8371" gradientUnits="userSpaceOnUse">
<stop stop-color="#5e0d8b"/>
<stop offset="1" stop-color="#7f35a8"/>
</linearGradient>
<linearGradient id="paint6_linear_107_842" x1="2.00687e-07" y1="20.8371" x2="53.8715" y2="20.8371" gradientUnits="userSpaceOnUse">
<stop stop-color="#5e0d8b"/>
<stop offset="1" stop-color="#7f35a8"/>
</linearGradient>
<linearGradient id="paint7_linear_107_842" x1="2.00687e-07" y1="20.8371" x2="53.8715" y2="20.8371" gradientUnits="userSpaceOnUse">
<stop stop-color="#5e0d8b"/>
<stop offset="1" stop-color="#7f35a8"/>
</linearGradient>
<linearGradient id="paint8_linear_107_842" x1="2.00687e-07" y1="20.8371" x2="53.8715" y2="20.8371" gradientUnits="userSpaceOnUse">
<stop stop-color="#5e0d8b"/>
<stop offset="1" stop-color="#7f35a8"/>
</linearGradient>
<linearGradient id="paint9_linear_107_842" x1="2.00687e-07" y1="20.8371" x2="53.8715" y2="20.8371" gradientUnits="userSpaceOnUse">
<stop stop-color="#5e0d8b"/>
<stop offset="1" stop-color="#7f35a8"/>
</linearGradient>
<linearGradient id="paint10_linear_107_842" x1="2.00687e-07" y1="20.8371" x2="53.8715" y2="20.8371" gradientUnits="userSpaceOnUse">
<stop stop-color="#5e0d8b"/>
<stop offset="1" stop-color="#7f35a8"/>
</linearGradient>
<linearGradient id="paint11_linear_107_842" x1="2.00687e-07" y1="20.8371" x2="53.8715" y2="20.8371" gradientUnits="userSpaceOnUse">
<stop stop-color="#5e0d8b"/>
<stop offset="1" stop-color="#7f35a8"/>
</linearGradient>
</defs>
</svg>
