<svg width="44" height="44" viewBox="0 0 44 44" fill="none" xmlns="http://www.w3.org/2000/svg">
<path fill-rule="evenodd" clip-rule="evenodd" d="M11.0135 29.6956L11.0108 29.6513C11.007 29.5909 11 29.4802 11 29.3571V12.6429C11 10.6314 12.6314 9 14.6429 9H18.5C20.5115 9 22.1429 10.6314 22.1429 12.6429V21.8571H31.3571C33.3686 21.8571 35 23.4885 35 25.5V29.3571C35 31.3686 33.3686 33 31.3571 33H14.6429C12.7519 33 11.2066 31.5645 11.0171 29.7302L11.0135 29.6956ZM17.2143 22.2857C16.8607 22.2857 16.5714 22.575 16.5714 22.9286C16.5714 23.2821 16.8607 23.5714 17.2143 23.5714H20.4286V26.7857C20.4286 27.1393 20.7179 27.4286 21.0714 27.4286C21.425 27.4286 21.7143 27.1393 21.7143 26.7857V23.5714H24.2857V26.7857C24.2857 27.1393 24.575 27.4286 24.9286 27.4286C25.2821 27.4286 25.5714 27.1393 25.5714 26.7857V23.5714H28.1429V26.7857C28.1429 27.1393 28.4321 27.4286 28.7857 27.4286C29.1393 27.4286 29.4286 27.1393 29.4286 26.7857V23.5714H31.3571C32.4219 23.5714 33.2857 24.4353 33.2857 25.5V29.3571C33.2857 30.4219 32.4219 31.2857 31.3571 31.2857H14.6429C13.6424 31.2857 12.8228 30.5263 12.7223 29.554C12.7183 29.4897 12.7143 29.4254 12.7143 29.3571V12.6429C12.7143 11.5781 13.5781 10.7143 14.6429 10.7143H18.5C19.5647 10.7143 20.4286 11.5781 20.4286 12.6429V14.5714H17.2143C16.8607 14.5714 16.5714 14.8607 16.5714 15.2143C16.5714 15.5679 16.8607 15.8571 17.2143 15.8571H20.4286V18.4286H17.2143C16.8607 18.4286 16.5714 18.7179 16.5714 19.0714C16.5714 19.425 16.8607 19.7143 17.2143 19.7143H20.4286V22.2857H17.2143Z" fill="#545454"/>
<circle cx="22" cy="22" r="21" stroke="#575757" stroke-width="2"/>
</svg>
