<svg xmlns="http://www.w3.org/2000/svg" viewBox="0 0 486 118.21"><defs><style>.cls-1{fill:#fff;}</style></defs><g id="Layer_2" data-name="Layer 2"><g id="Layer_1-2" data-name="Layer 1"><path class="cls-1" d="M107.7,93.65c-15.76,0-23.2-15.86-23.2-31.95s7.34-31.49,23.2-31.49S131,45.47,131,61.7s-7.44,32-23.3,32m0-64.87c-18.88,0-33.29,14.64-33.29,32.92,0,19.46,14.53,33.39,33.29,33.39s33.39-13.93,33.39-33.39c0-18.28-14.41-32.92-33.39-32.92"/><polygon class="cls-1" points="153.35 2.81 153.35 94.35 163.09 94.35 163.09 0.41 153.35 2.81"/><polygon class="cls-1" points="249.23 2.81 249.23 94.25 258.97 94.25 258.97 0.41 249.23 2.81"/><rect class="cls-1" x="249.23" y="92.82" width="30.71" height="1.43"/><path class="cls-1" d="M203.33,0C191.31,0,183,6.06,183,28.41V94.35h9.74V23.24c0-12.49.31-21.32,11.85-21.32,7.22,0,12.18,3.73,14.23,8.29L220,9.72C217.26,4,211.62,0,203.33,0"/><path class="cls-1" d="M330.12,67.22c0,14.78-9.84,24.63-19.93,24.63-7.47,0-11.91-5.17-11.91-12.14,0-8.4,6.36-18.38,31.84-18.38V59.9c-32.44,1.2-41.81,11.77-41.81,21.73,0,8.67,7,13.46,16,13.46,14.6,0,22.75-8.43,25.83-18.3a32.43,32.43,0,0,0,1.44-9.57ZM340,73.94V53c0-16.81-11.06-24.15-25-24.15-14.66.12-23.07,8.78-23.07,19.35a21.48,21.48,0,0,0,.16,2.6h1.47a18,18,0,0,1-.19-2.6c0-9.74,7.57-17.31,18.86-17.18,13.23.24,17.91,9,17.91,20.05V76.79c.14,11.91,7.67,17.23,18.26,18.3L348.5,94c-6.25-1.33-8.52-7.09-8.52-20.08"/><path class="cls-1" d="M359.6,31.41V94.35h9.84V29Zm33-2.63c-8.91,0-19.43,4.76-23.2,14.87A24,24,0,0,0,368,52l1.42-.12c0-14.17,11.89-20.78,20.31-20.78,13.11,0,16,8.16,16,22.47V94.35h9.74V54.13c0-17.68-7.94-25.35-22.83-25.35"/><path class="cls-1" d="M460.9,30.21c9.49,0,14.64,5.17,14.64,12,0,5.9-4.68,7.22-10.32,7.22H438.65c2.92-12.28,11-19.23,22.25-19.23m23.78,43.73C482,86.68,472.54,92.82,462.57,92.82c-16,0-25.12-12.51-25.12-32.32a49.39,49.39,0,0,1,.89-9.61h45.14C487.2,39.6,478.31,28.78,461,28.78c-18.48,0-33.87,13.69-33.87,34.12s14.41,32.44,31,32.44c14.78,0,25.1-7.81,27.87-21.15Z"/><path class="cls-1" d="M52.9,23.9c-1.35-8.76,11.31-15.31,17.68-9.14A27.93,27.93,0,0,0,52.9,23.9"/><path class="cls-1" d="M11.53,66.42c-7.45,9.33-9.82,16.35,3.81,19.84,10.46,2.12,20.94.33,32.06,1.65,8.11.66,18.2,5.19,14.14,15.26-.33-8.73-7-9.39-14.41-8.91-10.81.49-22.71,2.79-33.86-.33-16.82-5.14-17.93-20.57-1.75-27.5h0Z"/><path class="cls-1" d="M.42,116.4c6.71-10.93,22-13.54,33.86-11.13,9.45,1.73,15.64,7,24.39,8.17a23.75,23.75,0,0,0,8.42-.81,15.81,15.81,0,0,1-8,5c-8.89,2.37-18.7-2.76-26.43-4.3C21.7,111.08,10.76,111,.41,116.39Z"/><path class="cls-1" d="M56.91,47.27c0-15.36-7.41-29.83-23.21-29.83S10.61,31.91,10.61,47.27,18,77.57,33.69,77.57s23.2-15,23.2-30.3Zm-56.34,0C.57,30,14.91,16.08,33.7,16.08S67,30,67,47.27C67,65.72,52.48,78.91,33.7,78.91S.57,65.72.57,47.27"/></g></g></svg>