<svg width="24" height="24" viewBox="0 0 24 24" fill="none" xmlns="http://www.w3.org/2000/svg">
<path d="M10.017 4.62941L9.05111 4.88823C8.99725 4.68721 8.99897 4.471 8.99983 4.36409C8.99992 4.3525 9 4.3422 9 4.33333C9 4.33244 8.99996 4.33068 8.9999 4.3281C8.99911 4.29274 8.99489 4.10452 9.04259 3.92648C9.15818 3.49511 9.49511 3.15818 9.92648 3.04259C10.1045 2.99489 10.2927 2.99911 10.3281 2.9999C10.3307 2.99996 10.3324 3 10.3333 3H13.6667C13.6676 3 13.6693 2.99996 13.6719 2.9999C13.7073 2.99911 13.8955 2.99489 14.0735 3.04259M10.017 4.62941L14.0735 3.04259M10.017 4.62941L9.05111 4.88823C9.18981 5.40587 9.59413 5.81019 10.1118 5.94889C10.3128 6.00275 10.529 6.00103 10.6359 6.00017C10.6475 6.00008 10.6578 6 10.6667 6H13.3333M10.017 4.62941L13.3333 6M14.0735 3.04259C14.5049 3.15818 14.8418 3.49511 14.9574 3.92648M14.0735 3.04259L14.9574 3.92648M13.3333 6C13.3422 6 13.3525 6.00008 13.3641 6.00017C13.471 6.00103 13.6872 6.00275 13.8882 5.94889C14.4059 5.81019 14.8102 5.40587 14.9489 4.88823C15.0028 4.68721 15.001 4.471 15.0002 4.36409M13.3333 6L15.0002 4.36409M15.0002 4.36409C15.0001 4.3525 15 4.3422 15 4.33333M15.0002 4.36409L15 4.33333M15 4.33333C15 4.33244 15 4.33068 15.0001 4.3281M15 4.33333L15.0001 4.3281M15.0001 4.3281C15.0009 4.29274 15.0051 4.10452 14.9574 3.92648M15.0001 4.3281L14.9574 3.92648" stroke="#33363F" stroke-width="2"/>
<rect x="6" y="3" width="12" height="18" rx="2" stroke="#33363F" stroke-width="2"/>
<circle cx="12" cy="18" r="1" fill="#33363F"/>
</svg>
